<svg width="41" height="28" viewBox="0 0 41 28" fill="none" xmlns="http://www.w3.org/2000/svg">
<path d="M13.7577 0.511627C15.4978 0.511627 17.223 0.860108 18.8312 1.53939C20.4394 2.21615 21.9007 3.21109 23.1305 4.4636C24.3603 5.71612 25.3387 7.20347 26.0034 8.83982C26.67 10.4766 27.0126 12.2304 27.0116 14.0014C27.0116 19.4559 23.7828 24.375 18.8287 26.4608C13.8747 28.5492 8.17379 27.3952 4.38233 23.5366C0.590862 19.6806 -0.541848 13.8776 1.50948 8.83982C3.5608 3.79947 8.39536 0.514152 13.7552 0.514152L13.7577 0.511627ZM13.7577 18.0443C14.2806 18.0454 14.7986 17.9415 15.2819 17.7387C15.7651 17.5358 16.204 17.2381 16.5733 16.8625C16.9421 16.486 17.2348 16.0399 17.4346 15.5493C17.6338 15.0569 17.7359 14.5317 17.7359 14.0014C17.7359 12.365 16.7674 10.8903 15.2812 10.264C13.795 9.63779 12.0848 9.98375 10.9471 11.1403C9.80937 12.2969 9.46832 14.0367 10.0857 15.5493C10.3855 16.2879 10.8948 16.9196 11.5489 17.3642C12.2031 17.8089 12.9727 18.0464 13.7602 18.0468L13.7577 18.0443Z" fill="black"/>
<path d="M28.8861 10.6311C32.2545 11.6185 36.2304 10.6311 36.2304 10.6311C35.0777 15.7577 31.418 18.9675 26.1425 19.3564C25.6347 20.5585 24.955 21.6773 24.1285 22.6799C23.3019 23.6825 22.336 24.5563 21.2629 25.2761C20.1874 25.9958 19.0173 26.5514 17.785 26.9252C16.5526 27.2989 15.273 27.4909 13.9884 27.4883L17.9642 14.6263C22.0521 1.40563 24.1484 0.511627 33.8428 0.511627H40.5C39.3872 5.50189 35.5482 9.3153 28.8861 10.6285V10.6311Z" fill="#00CFFF"/>
</svg>
