<svg width="36" height="27" viewBox="0 0 36 27" fill="none" xmlns="http://www.w3.org/2000/svg">
<path d="M30.1483 2.26124C27.8827 1.20487 25.4602 0.43715 22.9276 0C22.6165 0.56041 22.2531 1.31417 22.0026 1.91379C19.3103 1.5103 16.6428 1.5103 14 1.91379C13.7495 1.31417 13.3779 0.56041 13.0641 0C10.5287 0.43715 8.10339 1.2077 5.83778 2.26684C1.26802 9.14854 0.0292337 15.8593 0.648628 22.4748C3.67953 24.7304 6.61685 26.1006 9.50459 26.9972C10.2176 26.0193 10.8535 24.9798 11.4013 23.8842C10.358 23.4891 9.35869 23.0016 8.41448 22.4356C8.66498 22.2506 8.91 22.0573 9.14672 21.8583C14.9057 24.5427 21.163 24.5427 26.8532 21.8583C27.0927 22.0573 27.3376 22.2506 27.5854 22.4356C26.6384 23.0044 25.6364 23.4919 24.5931 23.887C25.1409 24.9798 25.774 26.0221 26.4898 27C29.3803 26.1034 32.3203 24.7332 35.3512 22.4748C36.078 14.8058 34.1097 8.15662 30.1483 2.26124ZM12.1859 18.4063C10.4571 18.4063 9.03935 16.798 9.03935 14.8394C9.03935 12.8808 10.4268 11.2696 12.1859 11.2696C13.945 11.2696 15.3627 12.878 15.3324 14.8394C15.3351 16.798 13.945 18.4063 12.1859 18.4063ZM23.814 18.4063C22.0852 18.4063 20.6675 16.798 20.6675 14.8394C20.6675 12.8808 22.0549 11.2696 23.814 11.2696C25.5731 11.2696 26.9908 12.878 26.9605 14.8394C26.9605 16.798 25.5731 18.4063 23.814 18.4063Z" fill="black"/>
</svg>
