<svg width="41" height="30" viewBox="0 0 41 30" fill="none" xmlns="http://www.w3.org/2000/svg">
<path d="M1.03313 12.3899L39.5027 0.46912C40.0804 0.289447 40.6318 0.805854 40.472 1.37604L33.7414 25.3942C33.6223 25.8183 33.1549 26.0505 32.7332 25.8947L19.1423 20.881C18.6078 20.6836 18.4756 20.0046 18.8992 19.6306L29.5609 10.2081C30.2163 9.62939 29.5089 8.60758 28.7132 8.98526L10.8653 17.4519C10.6698 17.5448 10.4436 17.5515 10.2425 17.4715L0.976113 13.7912C0.313828 13.5278 0.351422 12.6007 1.03313 12.3899ZM22.4174 14.4207C22.752 14.1371 22.3804 13.6262 21.9951 13.8401L13.49 18.3704C12.7231 18.7964 12.3628 19.685 12.6234 20.5076L15.2507 29.1349C15.3841 29.5719 15.9468 29.7131 16.2795 29.3928L21.5233 24.5514C21.7375 24.3449 21.6692 23.9922 21.3923 23.8773L15.9512 21.2324C15.6523 21.0869 15.5934 20.6964 15.8359 20.4733L22.4174 14.4207Z" fill="black"/>
</svg>
