<svg width="33" height="32" viewBox="0 0 33 32" fill="none" xmlns="http://www.w3.org/2000/svg">
<path d="M20.414 30.9677C20.699 30.9677 20.9301 31.1989 20.9301 31.4839C20.9301 31.7688 20.699 32 20.414 32H4.05375C3.07662 32 2.18681 31.5994 1.54299 30.9543C0.899174 30.3105 0.5 29.4207 0.5 28.4449V3.55644C0.5 2.57793 0.90055 1.68815 1.54299 1.04568L1.57391 1.01745C2.21638 0.38977 3.09408 0.00133129 4.05508 0.00133129H5.50671C5.79165 0.00133129 6.02283 0.232516 6.02283 0.51746C6.02283 0.802405 5.79165 1.03359 5.50671 1.03359H4.05508C3.37361 1.03359 2.7513 1.30778 2.28627 1.76209C1.81718 2.23252 1.53224 2.86289 1.53224 3.55643V28.4449C1.53224 29.1397 1.81584 29.7715 2.27416 30.2285C2.72979 30.6841 3.36154 30.9677 4.05508 30.9677H20.4153L20.414 30.9677ZM16.9233 12.9074L23.4488 4.97204C23.5416 4.83764 23.6975 4.74892 23.8736 4.74892H26.7808C26.8964 4.75161 27.012 4.78925 27.1074 4.86855C27.3265 5.04866 27.3588 5.37394 27.1773 5.59302L18.8804 15.6816L26.473 26.4371C26.637 26.6696 26.5805 26.9908 26.348 27.1548C26.2579 27.218 26.1544 27.2489 26.0523 27.2489L22.1008 27.2502C21.9153 27.2502 21.7527 27.1521 21.6613 27.0056L16.0768 19.093L9.55121 27.0273C9.45847 27.1617 9.30255 27.2504 9.12647 27.2504H6.21922C6.10362 27.2477 5.98803 27.2101 5.8926 27.1308C5.67352 26.9507 5.64126 26.6254 5.82271 26.4063L14.1197 16.3191L6.52706 5.56226C6.36308 5.32973 6.41953 5.00848 6.65206 4.84453C6.74211 4.78136 6.8456 4.75044 6.94776 4.75044H10.8992C11.0847 4.75044 11.2474 4.84856 11.3387 4.99506L16.9246 12.909L16.9233 12.9074ZM12.5847 1.03226C12.2997 1.03226 12.0685 0.801074 12.0685 0.516129C12.0685 0.231184 12.2997 0 12.5847 0H28.9436C29.9221 0 30.8118 0.400551 31.4557 1.04299L31.4839 1.07391C32.1116 1.71639 32.5 2.59408 32.5 3.55508V28.4435C32.5 29.4193 32.0994 30.3091 31.4543 30.9556C30.8091 31.6008 29.9194 32 28.9435 32H27.4933C27.2083 32 26.9771 31.7688 26.9771 31.4839C26.9771 31.1989 27.2083 30.9677 27.4933 30.9677H28.9435C29.6384 30.9677 30.2702 30.6841 30.7258 30.2285C31.1841 29.7715 31.4677 29.1398 31.4677 28.4449V3.55645C31.4677 2.87365 31.1935 2.25268 30.7392 1.78765C30.2688 1.31855 29.6384 1.03362 28.9449 1.03362H12.586L12.5847 1.03226Z" fill="black"/>
</svg>
