<svg width="41" height="30" viewBox="0 0 41 30" fill="none" xmlns="http://www.w3.org/2000/svg">
<path fill-rule="evenodd" clip-rule="evenodd" d="M6.32898 1.03733C3.23227 1.28931 0.891613 3.89733 0.740867 7.11071C0.616667 9.75832 0.5 12.805 0.5 14.9082C0.5 17.0355 0.619351 20.128 0.745133 22.7965C0.894667 25.9688 3.18173 28.5594 6.23529 28.8514C9.61551 29.1747 14.5063 29.5 20.5 29.5C26.4781 29.5 31.3591 29.1763 34.7383 28.8539C37.8037 28.5615 40.0953 25.954 40.2428 22.7694C40.3729 19.9598 40.5 16.7451 40.5 14.9082C40.5 13.0911 40.3756 9.92542 40.247 7.13759C40.0981 3.91178 37.7538 1.28756 34.6452 1.03521C31.318 0.765143 26.5189 0.5 20.5 0.5C14.4655 0.5 9.65716 0.766523 6.32898 1.03733ZM16.5 8.75948L26.8111 14.9082L16.5 21.0569V8.75948Z" fill="black"/>
</svg>
