<svg width="35" height="40" viewBox="0 0 35 40" fill="none" xmlns="http://www.w3.org/2000/svg">
<g clip-path="url(#clip0_2_177)">
<path fill-rule="evenodd" clip-rule="evenodd" d="M20.9834 14.3926C22.2216 13.7977 23.797 12.922 25.3744 11.7222C25.707 12.3877 25.7434 12.9684 25.5721 13.4373C25.4506 13.7678 25.2218 14.0552 24.9209 14.2839C24.5951 14.531 24.1882 14.7109 23.7384 14.8082C22.8848 14.9934 21.8883 14.8853 20.9834 14.3926ZM21.1981 20.4878L22.8371 21.4C19.4905 23.2072 18.5807 26.563 17.5 29.8316C16.4194 26.563 15.5095 23.2072 12.1631 21.4L13.8021 20.4878C13.9607 20.43 14.0962 20.3254 14.1893 20.1889C14.2823 20.0524 14.3282 19.891 14.3202 19.7279C14.1701 16.6668 15.0279 15.3131 16.185 14.4632C16.6 14.1587 17.053 14.0058 17.5 14.0058C17.947 14.0058 18.4001 14.1587 18.8152 14.4632C19.9723 15.3131 20.8301 16.6668 20.68 19.7279C20.672 19.891 20.7179 20.0524 20.8109 20.1889C20.904 20.3254 21.0395 20.43 21.1981 20.4878ZM17.5 0.5C19.3946 0.54901 21.2939 0.90339 22.9422 1.59278C24.0836 2.07079 25.1487 2.7022 26.1131 3.45724C26.5486 3.7981 26.9072 4.12739 27.3023 4.50647C28.3678 4.54196 29.9249 3.40147 30.6478 2.3343C29.4037 6.2642 23.7265 10.9051 19.7961 12.6809C19.7945 12.6802 19.7934 12.6793 19.7922 12.6785C19.0868 12.1596 18.2935 11.9001 17.5 11.9001C16.7066 11.9001 15.9134 12.1596 15.208 12.6785C15.2068 12.6792 15.2057 12.6803 15.2041 12.6809C11.2736 10.9051 5.59652 6.2642 4.35242 2.3343C5.07519 3.40147 6.63231 4.54196 7.69777 4.50647C8.09296 4.12752 8.45158 3.7981 8.88696 3.45724C9.85138 2.7022 10.9164 2.07079 12.0579 1.59278C13.7063 0.90339 15.6056 0.54901 17.5 0.5ZM14.0166 14.3926C12.7786 13.7977 11.203 12.922 9.62579 11.7222C9.29321 12.3877 9.25678 12.9684 9.428 13.4373C9.54956 13.7678 9.77839 14.0552 10.0791 14.2839C10.4051 14.531 10.812 14.7109 11.2618 14.8082C12.1153 14.9934 13.1117 14.8853 14.0166 14.3926Z" fill="black"/>
<path fill-rule="evenodd" clip-rule="evenodd" d="M27.1019 10.2521C27.9702 9.40773 28.7354 8.47316 29.3506 7.63921L29.6631 8.20588C30.6691 10.1451 31.1917 12.0765 31.1917 14.2501L31.1896 17.6993L31.2085 19.4873C31.2813 23.8769 32.2671 28.318 34.5 32.3824L29.8281 28.7525L26.5224 33.9212L23.0496 30.7711L17.5 39.4485L11.9504 30.7713L8.47772 33.9213L5.17203 28.7526L0.5 32.3825C2.73294 28.3182 3.71867 23.877 3.79166 19.4874L3.81055 17.6994L3.80839 14.2502C3.80839 12.0765 4.33094 10.1451 5.33717 8.20601L5.64952 7.63934C6.26475 8.47329 7.02975 9.40773 7.89824 10.2522L7.62705 10.795C7.10018 11.8491 6.92573 13.0278 7.33616 14.1488C7.60074 14.8708 8.08362 15.49 8.70614 15.9627C9.31059 16.4217 10.0259 16.7311 10.7749 16.8936C11.2628 16.9995 11.7598 17.043 12.2536 17.0282C12.1384 17.6575 12.0881 18.3103 12.0848 18.9753L7.67778 21.4279L11.0786 23.2647C11.3504 23.4115 11.6092 23.5798 11.8522 23.7677C14.656 26.1932 16.3417 33.3688 17.5001 36.8737C18.6587 33.3688 20.3443 26.1932 23.1482 23.7677C23.3912 23.5797 23.65 23.4115 23.9218 23.2647L27.3226 21.4279L22.9154 18.9753C22.9122 18.3103 22.8619 17.6575 22.7467 17.0282C23.2405 17.043 23.7375 16.9995 24.2254 16.8936C24.9743 16.7311 25.6898 16.4217 26.2941 15.9627C26.9165 15.49 27.3995 14.8708 27.664 14.1488C28.0745 13.0278 27.9 11.8493 27.3732 10.795L27.102 10.2522L27.1019 10.2521Z" fill="black"/>
</g>
<defs>
<clipPath id="clip0_2_177">
<rect width="34" height="39" fill="white" transform="translate(0.5 0.5)"/>
</clipPath>
</defs>
</svg>
