<svg width="41" height="40" viewBox="0 0 41 40" fill="none" xmlns="http://www.w3.org/2000/svg">
<path d="M40.4862 20.0083V19.9307C40.4468 8.9563 31.4745 0 20.4931 0C9.51173 0 0.5 8.9563 0.5 20.0083C0.5 31.0617 9.47096 40 20.4931 40C25.5508 40.0034 30.4151 38.0854 34.074 34.6451C34.4343 34.3207 34.6492 33.8685 34.6712 33.3881C34.6932 32.9077 34.5206 32.4383 34.1914 32.0832C33.8621 31.7282 33.4032 31.5165 32.9156 31.4948C32.4279 31.4732 31.9515 31.6432 31.5912 31.9676L31.5518 32.0064C29.9731 33.485 28.1074 34.6341 26.0667 35.3847C24.026 36.1353 21.8525 36.4718 19.6765 36.3741C17.5005 36.2765 15.367 35.7466 13.404 34.8163C11.4411 33.886 9.68916 32.5745 8.25346 30.9606L16.7942 17.4666V23.7108C16.7942 26.6944 17.9752 27.6653 18.9677 27.9368C19.9603 28.2083 21.4491 28.0116 23.0617 25.4921L27.7475 17.9957C27.8726 17.7769 28.0174 17.5691 28.1777 17.3738V21.176C28.1777 23.967 29.3193 26.2165 31.2861 27.3011C32.194 27.7881 33.2189 28.0238 34.2519 27.9831C35.2848 27.9424 36.2873 27.6267 37.1529 27.0697C39.4248 25.6167 40.6451 23.0722 40.4862 20.0083ZM35.2901 23.9352C34.9745 24.1493 34.6067 24.2765 34.2245 24.3035C33.8424 24.3305 33.4599 24.2565 33.1166 24.0889C32.3293 23.6249 31.8555 22.5791 31.8555 21.1441V16.7491C31.8555 14.6575 31.0288 13.1436 29.6131 12.7585C27.2104 12.0438 25.4025 14.9678 24.7319 16.0537L20.4931 22.7606V14.5024C20.4537 12.6034 19.8225 11.4786 18.6416 11.1282C17.8543 10.8969 16.6733 11.0146 15.5331 12.7211L6.04763 27.6875C4.78574 25.3185 4.12443 22.6838 4.12016 20.0083C4.12016 10.9731 11.4786 3.6443 20.4931 3.6443C29.5076 3.6443 36.8661 10.9731 36.8661 20.0083V20.0873C36.9603 21.8298 36.3923 23.2288 35.2915 23.9241L35.2901 23.9352Z" fill="black"/>
</svg>
