<svg width="40" height="40" viewBox="0 0 40 40" fill="none" xmlns="http://www.w3.org/2000/svg">
<path d="M39.9998 19.9117C40.0173 23.8672 38.8614 27.739 36.6785 31.0376C34.4955 34.3362 31.3834 36.9134 27.7358 38.4434C24.0881 39.9733 20.0687 40.3873 16.1858 39.6329C12.3028 38.8785 8.73081 36.9897 5.92134 34.2053C3.11187 31.4209 1.19114 27.8659 0.402033 23.9899C-0.387075 20.1139 -0.00912326 16.0909 1.4881 12.4297C2.98531 8.7685 5.53456 5.63347 8.81347 3.42104C12.0924 1.20862 15.9537 0.0181564 19.9092 0.00019699C25.2137 -0.0233289 30.3104 2.06121 34.0781 5.79529C37.8457 9.52937 39.9758 14.6072 39.9998 19.9117Z" fill="black"/>
<path d="M38.2856 19.9168C38.302 23.5333 37.2457 27.0735 35.2502 30.0897C33.2546 33.1058 30.4095 35.4625 27.0746 36.8617C23.7396 38.2609 20.0647 38.6398 16.5144 37.9504C12.9642 37.261 9.69811 35.5343 7.12919 32.9887C4.56027 30.4431 2.8039 27.1929 2.08217 23.6491C1.36045 20.1053 1.70579 16.427 3.07453 13.0795C4.44326 9.73192 6.77392 6.86543 9.77177 4.84247C12.7696 2.81951 16.3 1.73095 19.9165 1.71442C22.3179 1.70345 24.6978 2.16557 26.9206 3.0744C29.1433 3.98322 31.1652 5.32094 32.871 7.0112C34.5767 8.70145 35.9328 10.7111 36.8618 12.9255C37.7909 15.1398 38.2747 17.5155 38.2856 19.9168Z" fill="white"/>
<path d="M20.5715 2.44435C21.7443 2.2329 22.9449 2.2329 24.1177 2.44435C25.3018 2.63386 26.4463 3.02133 27.5042 3.59085C28.5552 4.17472 29.4654 4.96665 30.3693 5.714C31.2732 6.46135 32.175 7.21719 33.0327 8.04946C33.9072 8.86777 34.6706 9.79943 35.3029 10.8202C35.9549 11.834 36.4888 12.9205 36.8942 14.058C37.6828 16.33 37.9073 18.7628 37.5479 21.1429H37.4302C37.084 18.8691 36.5049 16.6377 35.7023 14.4847C35.3176 13.42 34.8647 12.3817 34.3465 11.3764C33.8018 10.3741 33.2024 9.40303 32.5513 8.46772C31.887 7.52106 31.0732 6.69116 30.1423 6.01124C29.2069 5.3382 28.1306 4.90084 27.088 4.48682C26.0453 4.07281 25.0027 3.66092 23.9201 3.34457C22.8376 3.02822 21.7298 2.79255 20.5757 2.56325L20.5715 2.44435Z" fill="white"/>
<path d="M29.418 13.3021C28.0818 12.9158 26.6909 12.3707 25.2938 11.8193C25.2141 11.4684 24.9016 11.0319 24.2722 10.4994C23.3555 9.70785 21.6354 9.72873 20.1481 10.0817C18.5076 9.6974 16.886 9.56165 15.3232 9.9334C2.60034 13.4212 9.81662 21.9485 5.14282 30.5113C5.80781 31.9147 12.9758 40.1183 23.3471 37.9108C23.3471 37.9108 19.8019 29.4253 27.8049 25.3527C34.2974 22.0383 38.9901 15.9023 29.418 13.3021Z" fill="black"/>
<path d="M30.8572 19.1359C30.8581 19.3056 30.8254 19.472 30.7633 19.6138C30.7011 19.7556 30.6123 19.8665 30.508 19.9326C30.4038 19.9986 30.2888 20.0167 30.1777 19.9846C30.0666 19.9525 29.9644 19.8717 29.8839 19.7523C29.8035 19.6329 29.7485 19.4804 29.7259 19.3141C29.7033 19.1478 29.7141 18.9752 29.757 18.8182C29.7998 18.6611 29.8728 18.5266 29.9667 18.4319C30.0606 18.3371 30.1711 18.2862 30.2842 18.2858C30.3591 18.2852 30.4332 18.3067 30.5025 18.3491C30.5718 18.3915 30.6349 18.4539 30.6881 18.5328C30.7413 18.6118 30.7836 18.7057 30.8126 18.8092C30.8416 18.9126 30.8568 19.0237 30.8572 19.1359Z" fill="white"/>
<path d="M20 10.0416C20.9267 10.1167 24.2791 11.3425 25.1429 11.9999C24.4279 9.65175 21.998 9.34649 20 10.0416Z" fill="#010101"/>
<path d="M21.1429 15.4286C21.1429 16.1067 20.9251 16.7696 20.517 17.3334C20.1088 17.8972 19.5287 18.3367 18.85 18.5962C18.1713 18.8557 17.4245 18.9236 16.704 18.7913C15.9835 18.659 15.3217 18.3324 14.8022 17.8529C14.2828 17.3734 13.929 16.7625 13.7857 16.0975C13.6424 15.4324 13.716 14.743 13.9971 14.1165C14.2782 13.49 14.7543 12.9546 15.3651 12.5778C15.9759 12.2011 16.694 12 17.4286 12C18.4137 12 19.3585 12.3612 20.055 13.0042C20.7516 13.6472 21.1429 14.5193 21.1429 15.4286Z" fill="white"/>
<path d="M20 15.4266C20.0005 15.8788 19.85 16.3209 19.5677 16.697C19.2854 17.0732 18.884 17.3664 18.4141 17.5397C17.9443 17.713 17.4272 17.7585 16.9283 17.6706C16.4293 17.5826 15.9709 17.365 15.6111 17.0455C15.2513 16.7259 15.0061 16.3186 14.9067 15.8752C14.8074 15.4317 14.8581 14.972 15.0527 14.5543C15.2473 14.1365 15.5769 13.7794 15.9998 13.5282C16.4227 13.2769 16.9199 13.1428 17.4286 13.1428C18.11 13.1433 18.7634 13.384 19.2455 13.8122C19.7275 14.2403 19.9989 14.8209 20 15.4266Z" fill="black"/>
<path d="M33.7144 20.4696C30.8092 22.5529 27.5047 24.1244 22.8183 24.1244C20.6251 24.1244 20.1814 21.7595 18.732 22.9162C17.9819 23.516 15.3514 24.8511 13.2491 24.7565C11.1468 24.6619 7.75563 23.4042 6.8154 18.8572C6.44143 23.4042 6.24915 26.7538 4.57153 30.5935C7.9141 36.0392 15.8817 40.2379 23.112 38.432C22.3366 32.9111 27.0779 27.5019 29.7506 24.735C30.7606 23.688 32.7087 21.9767 33.7144 20.461V20.4696Z" fill="black"/>
<path d="M33.7144 20.6191C32.8165 21.4753 31.8146 22.1875 30.7382 22.735C29.6652 23.3003 28.5466 23.7522 27.3971 24.0849C26.2493 24.4145 25.0481 24.6622 23.8327 24.5395C22.6172 24.4167 21.373 23.9577 20.5715 22.9486L20.6105 22.8986C21.6025 23.6099 22.736 23.8599 23.8675 23.8963C25.0163 23.9333 26.1651 23.8273 27.2926 23.5804C28.4316 23.3172 29.546 22.9368 30.6214 22.4441C31.7141 21.9814 32.7428 21.3511 33.6775 20.5714L33.7144 20.6191Z" fill="white"/>
</svg>
